# File created by Blade
# Date/Time:  Tue Jan 27 19:38:14 2015
# Frame Rate: 120.000 fps
#------------------------------------------------------
:FULLY-SPECIFIED
:DEGREES
2741
root 4.203647 32.352435 2.397148 -3.438059 -6.846785 0.112771
Spine 2.590434 -11.246925 -2.642488
Head 10.392187 9.757379 5.855523
LeftShoulder -12.808866 -0.135907 29.074181
LeftArm -3.577323 35.165470 -103.907292
LeftForeArm 4.625770 -0.000000 13.811829
LeftHand 9.747498 0.000000 -4.209179
LeftHandThumb1 -26.253704 0.000000 33.147579
RightShoulder -26.977624 -18.989479 -20.990033
RightArm -18.341852 61.669250 81.298049
RightForeArm 11.789743 -0.000000 107.912868
RightHand 24.993417 -0.000000 -34.018702
RightHandThumb1 -24.326973 -0.000000 -32.862282
LeftUpLeg 9.453627 2.504025 -2.431085
LeftLeg 1.776291 -0.000000 -0.000000
LeftFoot -17.942942 14.502779 -22.261331
LeftToeBase 17.020705 -0.000000 -0.000000
RightUpLeg 5.538219 -0.947491 3.957049
RightLeg 5.048297 -0.000000 -0.000000
RightFoot -12.727882 -13.079595 12.738630
RightToeBase 9.073823 -0.000000 -0.000000
2742
root 4.206132 32.352216 2.396975 -3.438811 -6.887733 0.105822
Spine 2.597000 -11.193953 -2.633642
Head 10.400483 9.695247 5.821625
LeftShoulder -12.799875 -0.163468 29.065414
LeftArm -3.484382 35.168732 -103.898116
LeftForeArm 4.609483 -0.000000 14.034807
LeftHand 9.703813 -0.000000 -4.097716
LeftHandThumb1 -26.253704 0.000000 33.147579
RightShoulder -26.938091 -18.944611 -21.000967
RightArm -18.235320 61.681878 81.413186
RightForeArm 11.711914 -0.000000 107.966961
RightHand 25.017188 -0.000000 -33.922000
RightHandThumb1 -24.326973 -0.000000 -32.862282
LeftUpLeg 9.465611 2.531588 -2.430268
LeftLeg 1.764182 -0.000000 -0.000000
LeftFoot -17.944085 14.525795 -22.252684
LeftToeBase 16.985108 -0.000000 -0.000000
RightUpLeg 5.541689 -0.931672 3.957941
RightLeg 5.035033 -0.000000 -0.000000
RightFoot -12.719616 -13.057896 12.736492
RightToeBase 9.117660 -0.000000 -0.000000
2743
root 4.207632 32.352898 2.395757 -3.434570 -6.921987 0.077323
Spine 2.604533 -11.141074 -2.601091
Head 10.401260 9.635377 5.782915
LeftShoulder -12.793773 -0.206938 29.045328
LeftArm -3.409441 35.131547 -103.880169
LeftForeArm 4.720001 -0.000000 14.259277
LeftHand 9.568024 0.000000 -4.059260
LeftHandThumb1 -26.253704 0.000000 33.147579
RightShoulder -26.899478 -18.901459 -21.013957
RightArm -18.119504 61.680031 81.544183
RightForeArm 11.654381 0.000000 108.024798
RightHand 24.980901 0.000000 -34.071404
RightHandThumb1 -24.326973 -0.000000 -32.862282
LeftUpLeg 9.472024 2.551556 -2.407843
LeftLeg 1.766782 -0.000000 -0.000000
LeftFoot -18.002409 14.526257 -22.268253
LeftToeBase 17.117123 -0.000000 -0.000000
RightUpLeg 5.566788 -0.803549 3.998864
RightLeg 4.973024 -0.000000 -0.000000
RightFoot -12.685376 -13.159226 12.753889
RightToeBase 9.114039 -0.000000 -0.000000
2744
root 4.215338 32.352363 2.392684 -3.413915 -6.964470 0.078475
Spine 2.596684 -11.077582 -2.574591
Head 10.389592 9.613438 5.719790
LeftShoulder -12.790456 -0.242044 29.026261
LeftArm -3.317943 35.043284 -103.875218
LeftForeArm 4.848671 -0.000000 14.448806
LeftHand 9.716065 0.000000 -4.040955
LeftHandThumb1 -26.253704 0.000000 33.147579
RightShoulder -26.864559 -18.863139 -21.040169
RightArm -17.973137 61.671656 81.699564
RightForeArm 11.616420 -0.000000 108.077570
RightHand 24.986600 0.000000 -34.269346
RightHandThumb1 -24.326973 -0.000000 -32.862282
LeftUpLeg 9.453563 2.581775 -2.427482
LeftLeg 1.755441 -0.000000 -0.000000
LeftFoot -18.000163 14.567872 -22.254805
LeftToeBase 17.081342 -0.000000 -0.000000
RightUpLeg 5.536208 -0.764764 3.983307
RightLeg 4.973659 -0.000000 -0.000000
RightFoot -12.694353 -13.126916 12.796632
RightToeBase 9.142220 -0.000000 -0.000000
2745
root 4.219427 32.352251 2.391298 -3.401450 -6.973097 0.072350
Spine 2.592887 -11.040457 -2.562396
Head 10.391755 9.566127 5.692867
LeftShoulder -12.772760 -0.273266 29.023652
LeftArm -3.252380 34.976554 -103.875101
LeftForeArm 4.946095 -0.000000 14.674221
LeftHand 9.716106 0.000000 -4.025755
LeftHandThumb1 -26.253704 0.000000 33.147579
RightShoulder -26.811544 -18.799427 -21.068419
RightArm -17.939844 61.658990 81.762763
RightForeArm 11.610200 -0.000000 108.134203
RightHand 25.015766 -0.000000 -34.359300
RightHandThumb1 -24.326973 -0.000000 -32.862282
LeftUpLeg 9.442556 2.625937 -2.422396
LeftLeg 1.741336 -0.000000 -0.000000
LeftFoot -18.008343 14.580080 -22.239236
LeftToeBase 16.999407 -0.000000 -0.000000
RightUpLeg 5.527535 -0.767029 3.980775
RightLeg 4.955270 -0.000000 -0.000000
RightFoot -12.678529 -13.111367 12.818585
RightToeBase 9.162737 -0.000000 -0.000000
2746
root 4.222470 32.352062 2.391083 -3.396933 -6.972622 0.063099
Spine 2.599522 -10.988861 -2.546623
Head 10.384049 9.476603 5.674264
LeftShoulder -12.752945 -0.317865 29.027420
LeftArm -3.171383 34.876255 -103.875483
LeftForeArm 5.063526 -0.000000 14.826139
LeftHand 9.794510 0.000000 -3.982412
LeftHandThumb1 -26.253704 0.000000 33.147579
RightShoulder -26.786915 -18.742431 -21.084813
RightArm -17.941376 61.650331 81.790921
RightForeArm 11.706930 -0.000000 108.197928
RightHand 24.948101 0.000000 -34.160489
RightHandThumb1 -24.326973 -0.000000 -32.862282
LeftUpLeg 9.451036 2.661722 -2.414234
LeftLeg 1.715211 -0.000000 -0.000000
LeftFoot -17.974918 14.559756 -22.225678
LeftToeBase 16.903985 -0.000000 -0.000000
RightUpLeg 5.535542 -0.793820 3.978484
RightLeg 4.931317 -0.000000 -0.000000
RightFoot -12.654838 -13.080442 12.827889
RightToeBase 9.088366 -0.000000 -0.000000
2747
root 4.224981 32.352270 2.390817 -3.392538 -6.958353 0.052052
Spine 2.603563 -10.977911 -2.543259
Head 10.409352 9.478871 5.674790
LeftShoulder -12.753383 -0.353216 29.033725
LeftArm -3.166811 34.902426 -103.878888
LeftForeArm 5.004231 0.000000 15.138413
LeftHand 9.684781 -0.000000 -3.846921
LeftHandThumb1 -26.253704 0.000000 33.147579
RightShoulder -26.732412 -18.701239 -21.085689
RightArm -17.900660 61.631427 81.848658
RightForeArm 11.824890 -0.000000 108.260343
RightHand 24.886808 0.000000 -33.908977
RightHandThumb1 -24.326973 -0.000000 -32.862282
LeftUpLeg 9.452051 2.681519 -2.403651
LeftLeg 1.703369 -0.000000 -0.000000
LeftFoot -17.984302 14.531827 -22.245574
LeftToeBase 16.956943 -0.000000 -0.000000
RightUpLeg 5.536951 -0.796828 3.981039
RightLeg 4.921011 -0.000000 -0.000000
RightFoot -12.649161 -13.070501 12.830942
RightToeBase 9.189267 -0.000000 -0.000000
2748
root 4.228733 32.352298 2.391576 -3.389641 -6.941245 0.043110
Spine 2.612781 -10.951208 -2.532483
Head 10.407900 9.466182 5.664392
LeftShoulder -12.760197 -0.359847 29.035350
LeftArm -3.075075 34.906305 -103.863223
LeftForeArm 4.980669 0.000000 15.292942
LeftHand 9.821194 -0.000000 -3.809269
LeftHandThumb1 -26.253704 0.000000 33.147579
RightShoulder -26.711407 -18.667168 -21.101335
RightArm -17.832018 61.594722 81.936893
RightForeArm 11.760886 -0.000000 108.297681
RightHand 24.829474 -0.000000 -33.938120
RightHandThumb1 -24.326973 -0.000000 -32.862282
LeftUpLeg 9.465620 2.752286 -2.391033
LeftLeg 1.670027 -0.000000 -0.000000
LeftFoot -17.941002 14.485880 -22.201277
LeftToeBase 16.904580 -0.000000 -0.000000
RightUpLeg 5.551556 -0.835290 3.976507
RightLeg 4.892425 -0.000000 -0.000000
RightFoot -12.632713 -13.039035 12.846866
RightToeBase 9.174172 -0.000000 -0.000000
2749
root 4.229324 32.352789 2.391255 -3.382021 -6.919264 0.032127
Spine 2.615381 -10.928992 -2.535073
Head 10.418874 9.459644 5.685056
LeftShoulder -12.753584 -0.388477 29.047291
LeftArm -3.034532 34.855442 -103.855362
LeftForeArm 5.074937 -0.000000 15.505980
LeftHand 9.716497 0.000000 -3.756054
LeftHandThumb1 -26.253704 0.000000 33.147579
RightShoulder -26.671778 -18.666440 -21.070772
RightArm -17.729015 61.583801 82.062579
RightForeArm 11.662003 0.000000 108.362091
RightHand 24.735886 -0.000000 -33.828032
RightHandThumb1 -24.326973 -0.000000 -32.862282
LeftUpLeg 9.468999 2.817397 -2.370054
LeftLeg 1.641639 -0.000000 -0.000000
LeftFoot -17.903504 14.442095 -22.155285
LeftToeBase 16.906906 -0.000000 -0.000000
RightUpLeg 5.558126 -0.860193 3.984089
RightLeg 4.864980 -0.000000 -0.000000
RightFoot -12.609813 -13.036808 12.847551
RightToeBase 9.171412 -0.000000 -0.000000
2750
root 4.233123 32.353141 2.391811 -3.367494 -6.883676 0.028770
Spine 2.615984 -10.918794 -2.528192
Head 10.397821 9.454989 5.683316
LeftShoulder -12.767812 -0.420970 29.039673
LeftArm -2.999101 34.848974 -103.838762
LeftForeArm 5.080229 -0.000000 15.680162
LeftHand 9.826800 -0.000000 -3.658979
LeftHandThumb1 -26.253704 0.000000 33.147579
RightShoulder -26.657588 -18.649884 -21.074591
RightArm -17.673673 61.556775 82.148720
RightForeArm 11.605856 -0.000000 108.412166
RightHand 24.756573 -0.000000 -33.596821
RightHandThumb1 -24.326973 -0.000000 -32.862282
LeftUpLeg 9.463156 2.803040 -2.375372
LeftLeg 1.629883 -0.000000 -0.000000
LeftFoot -17.904876 14.431711 -22.136247
LeftToeBase 17.006078 -0.000000 -0.000000
RightUpLeg 5.562378 -0.894360 3.976342
RightLeg 4.835294 -0.000000 -0.000000
RightFoot -12.608734 -13.021192 12.898587
RightToeBase 9.186175 -0.000000 -0.000000
2751
root 4.235810 32.353595 2.393448 -3.354700 -6.856246 0.024917
Spine 2.608411 -10.923287 -2.522364
Head 10.407240 9.484567 5.679951
LeftShoulder -12.786309 -0.425282 29.036176
LeftArm -2.961058 34.803609 -103.825290
LeftForeArm 5.091226 -0.000000 15.848638
LeftHand 9.820686 0.000000 -3.617907
LeftHandThumb1 -26.253704 0.000000 33.147579
RightShoulder -26.625621 -18.615181 -21.070168
RightArm -17.625692 61.520591 82.194881
RightForeArm 11.504320 -0.000000 108.452204
RightHand 24.855931 0.000000 -33.534434
RightHandThumb1 -24.326973 -0.000000 -32.862282
LeftUpLeg 9.461600 2.837723 -2.368854
LeftLeg 1.594989 -0.000000 -0.000000
LeftFoot -17.865841 14.416300 -22.126264
LeftToeBase 16.892734 -0.000000 -0.000000
RightUpLeg 5.567567 -0.909400 3.974984
RightLeg 4.810455 -0.000000 -0.000000
RightFoot -12.598699 -13.033205 12.889315
RightToeBase 9.161033 -0.000000 -0.000000
